<svg xmlns="http://www.w3.org/2000/svg" xmlns:xlink="http://www.w3.org/1999/xlink" viewBox="0,0,256,256" width="24px" height="24px" fill-rule="nonzero"><g fill="#b8b1ff" fill-rule="nonzero" stroke="none" stroke-width="1" stroke-linecap="butt" stroke-linejoin="miter" stroke-miterlimit="10" stroke-dasharray="" stroke-dashoffset="0" font-family="none" font-weight="none" font-size="none" text-anchor="none" style="mix-blend-mode: normal"><g transform="scale(10.66667,10.66667)"><path d="M21,14l-18,-0.009v0c-0.265,0 -0.52,0.105 -0.707,0.293c-0.187,0.188 -0.293,0.442 -0.293,0.707c0,2.048 0.564,3.625 1.678,4.688c1.451,1.385 3.289,1.313 3.321,1.312l10,0.009c0,0 0,0 0.001,0c3.007,0 5,-4.27 5,-6c0,-0.552 -0.447,-1 -1,-1z"></path><path d="M20.957,10.256c-1.741,-5.729 -6.478,-7.159 -6.679,-7.217c-0.092,-0.026 -0.185,-0.039 -0.278,-0.039c-0.24,0 -0.476,0.087 -0.661,0.249c-0.256,0.226 -0.38,0.567 -0.327,0.904c0.003,0.022 0.322,2.094 0.322,3.847c0,0.011 0,0.023 0,0.034c-2.095,-5.065 -6.931,-5.978 -7.161,-6.019c-0.057,-0.01 -0.115,-0.015 -0.173,-0.015c-0.305,0 -0.597,0.14 -0.789,0.385c-0.227,0.292 -0.275,0.685 -0.124,1.023c0.021,0.047 0.913,2.108 0.913,4.814c0,1.243 -0.648,2.829 -0.897,3.336c-0.171,0.347 -0.126,0.762 0.115,1.065c0.192,0.241 0.482,0.377 0.782,0.377c0.076,0 0.154,-0.009 0.23,-0.027l6.849,-1.618c-0.039,0.303 -0.067,0.489 -0.068,0.496c-0.05,0.329 0.068,0.662 0.313,0.887c0.187,0.17 0.429,0.262 0.676,0.262c0.078,0 0.157,-0.009 0.235,-0.028l6,-1.453c0.267,-0.065 0.496,-0.237 0.633,-0.476c0.137,-0.239 0.169,-0.523 0.089,-0.787z" opacity="0.35"></path></g></g></svg>